<svg id="Capa_1" enable-background="new 0 0 512.262 512.262" height="512" viewBox="0 0 512.262 512.262" width="512" xmlns="http://www.w3.org/2000/svg"><g><path d="m507.736 4.394c-5.857-5.858-15.355-5.858-21.213 0l-196.65 196.65c-36.87-29.094-90.468-26.96-124.88 6.404l-158.545 112.536c-7.591 5.388-8.471 16.292-1.924 22.838l165.049 165.049c6.735 6.736 17.979 5.561 23.176-2.421l106.745-163.92c31.332-32.518 34.927-82.026 10.746-118.427l197.496-197.496c5.858-5.858 5.858-15.355 0-21.213zm-276.646 206.253c50.791 0 81.996 55.886 55.334 99.12l-89.466-89.466c10.157-6.29 21.886-9.654 34.132-9.654zm-53.386 262.929-24.36-24.36 43.266-64.895c4.596-6.893 2.733-16.206-4.16-20.801-6.891-4.596-16.205-2.733-20.801 4.16l-39.938 59.904-93.416-93.416 134.579-95.524 95.579 95.579z"/></g></svg>