<?xml version="1.0" encoding="iso-8859-1"?>
<!-- Generator: Adobe Illustrator 19.0.0, SVG Export Plug-In . SVG Version: 6.00 Build 0)  -->
<svg version="1.1" id="Capa_1" xmlns="http://www.w3.org/2000/svg" xmlns:xlink="http://www.w3.org/1999/xlink" x="0px" y="0px"
	 viewBox="0 0 512 512" style="enable-background:new 0 0 512 512;" xml:space="preserve">
<g>
	<g>
		<path style="fill:#231F20;" d="M485.933,247.63l-89.044-77.913c-2.015-1.781-4.63-2.76-7.324-2.76h-33.391V66.783
			c0-18.41-14.982-33.391-33.391-33.391H267.13V11.13C267.13,4.986,262.144,0,256,0H122.435c-6.144,0-11.13,4.986-11.13,11.13
			v22.261H55.652c-8.927,0-17.319,3.473-23.619,9.784c-6.3,6.311-9.761,14.703-9.761,23.608c0,0,0,224.791-0.005,322.669
			c0,0.038-0.006,0.075-0.006,0.114c0,0.038,0.005,0.075,0.006,0.113c-0.001,26.572-0.003,43.74-0.006,44.408
			c0,18.41,14.982,33.391,33.391,33.391h166.957v11.13C222.609,497.018,237.59,512,256,512h200.348
			c18.399,0,33.38-14.97,33.391-33.369c0-0.011,0-0.011,0-0.022V256C489.739,252.783,488.359,249.745,485.933,247.63z
			 M133.565,22.261H244.87v44.522H133.565V22.261z M44.533,66.771c0-2.972,1.146-5.766,3.25-7.858
			c2.104-2.104,4.897-3.261,7.869-3.261h55.652v22.261c0,6.144,4.986,11.13,11.13,11.13H256c6.144,0,11.13-4.986,11.13-11.13V55.652
			h55.652c6.144,0,11.13,4.998,11.13,11.13v100.174H256c-18.41,0-33.391,14.982-33.391,33.391v178.087H44.532
			c0-0.577,0-1.149,0.001-1.736V66.771z M55.652,445.217c-6.133,0-11.13-4.986-11.13-11.13h-1.035
			c0.73-6.539,0.945-16.923,1.012-33.391h178.11v44.522H55.652z M467.478,478.609c0,6.144-4.986,11.13-11.13,11.13H256
			c-6.133,0-11.13-4.986-11.13-11.13V200.348c0-6.133,4.998-11.13,11.13-11.13h100.174v89.043c0,6.155,4.975,11.13,11.13,11.13
			h100.174V478.609z M467.478,267.13h-89.043v-77.913h6.945l82.098,71.836V267.13z"/>
	</g>
</g>
<g>
</g>
<g>
</g>
<g>
</g>
<g>
</g>
<g>
</g>
<g>
</g>
<g>
</g>
<g>
</g>
<g>
</g>
<g>
</g>
<g>
</g>
<g>
</g>
<g>
</g>
<g>
</g>
<g>
</g>
</svg>
